# xmcd
#
# Track frame offsets:
#	150
#	13918
#	28343
#	43173
#	63358
#	88468
#	118933
#	140723
#	153938
#	170228
#	217773
#	264200
#	304800
#
# Disc length: 4477 seconds
#
# Revision: 20
# Processed by: cddbd v1.5.2PL0 Copyright (c) Steve Scherf et al.
# Submitted via: audiograbber 1.82.01
#
DISCID=c1117b0d
DTITLE=Jacqueline du Pre - The Very Best Of [CD3)
DYEAR=1963
DGENRE=Classical
TTITLE0=Jacqueline du Pre - Paradis - Sicilienne  [1982]
TTITLE1=Jacqueline du Pre - Schumann - Three Fantasy Pieces Op.73 - I. Zart mit
TTITLE1=Ausdruck  [1982]
TTITLE2=Jacqueline du Pre - Schumann - Three Fantasy Pieces Op.73 - II. Lebhaft
TTITLE2=, leicht
TTITLE3=Jacqueline du Pre - Schumann - Three Fantasy Pieces Op.73 - III. Rasch 
TTITLE3=und mit Feuer
TTITLE4=Jacqueline du Pre - Mendelssohn - Song without Words in D, Op.109  [198
TTITLE4=2]
TTITLE5=Jacqueline du Pre - Fauré - Elegy in C minor Op.24  [1969]
TTITLE6=Jacqueline du Pre - Bach - Adagio from the Toccata, Adagio and Fugue in C
TTITLE6=BWV.564  [1963]
TTITLE7=Jacqueline du Pre - Saint-Saens - The Swan from The Carnival Of The Ani
TTITLE7=mals  [1963]
TTITLE8=Jacqueline du Pre - Falla - Jota from Suite populaire espagnole  [1963]
TTITLE9=Jacqueline du Pre - Kol nidrei Op.47  [1963]
TTITLE10=Jacqueline du Pre - Beethoven - Piano Trio in B flat 'Archduke' Op.97 
TTITLE10=I. Allegro moderato  [1989]
TTITLE11=Jacqueline du Pre - Brahms - Cello Sonata N°2 in F Op.99 - I. Allegro 
TTITLE11=vivace  [1989]
TTITLE12=Jacqueline du Pre - Franck - Sonata in A - IV. Allegretto poco mosso  
TTITLE12=[1989]
EXTD=WARNER\n7243  5 86597 2\n\nrecorded 1963 , 1968 , 1969 , 1970 , 1972 \ndig
EXTD=ital  YEAR: 1995\n\nCD 3 v 3\n
EXTT0=
EXTT1=
EXTT2=
EXTT3=
EXTT4=
EXTT5=
EXTT6=
EXTT7=
EXTT8=
EXTT9=
EXTT10=
EXTT11=
EXTT12=
PLAYORDER=
